<svg xmlns="http://www.w3.org/2000/svg" version="1.0">
  <symbol id="icon-logo" viewBox="0 0 512 512" fill="currentColor">
    <path d="M44 1.1A51.13 51.13 0 0 0 10.6 21C5.1 28.4 2.2 35.9.9 45.9c-.6 4.9-.9 81-.7 215.6l.3 208 2.2 6.5c5.5 16.2 17.7 28.2 33.7 33.3l7.1 2.2h425l7.1-2.2a51.11 51.11 0 0 0 33.7-33.8l2.2-7v-425l-2.2-7.1c-5.1-16-17.1-28.2-33.3-33.7L469.5.5l-210-.1C144 .3 47 .6 44 1.1zm210.1 208 83.4 120.1.3-120.1L338 89h52v335h-47.9l-83.3-120.1-83.3-120.1-.3 120.1L175 424l-26.3-.2-26.2-.3-.3-167.3L122 89h48.7l83.4 120.1z" />
  </symbol>
  <symbol id="icon-logout" viewBox="0 0 24 24" fill="currentColor">
    <path fill-rule="evenodd" d="M7.5 3.75A1.5 1.5 0 006 5.25v13.5a1.5 1.5 0 001.5 1.5h6a1.5 1.5 0 001.5-1.5V15a.75.75 0 011.5 0v3.75a3 3 0 01-3 3h-6a3 3 0 01-3-3V5.25a3 3 0 013-3h6a3 3 0 013 3V9A.75.75 0 0115 9V5.25a1.5 1.5 0 00-1.5-1.5h-6zm5.03 4.72a.75.75 0 010 1.06l-1.72 1.72h10.94a.75.75 0 010 1.5H10.81l1.72 1.72a.75.75 0 11-1.06 1.06l-3-3a.75.75 0 010-1.06l3-3a.75.75 0 011.06 0z" clip-rule="evenodd" />
  </symbol>
  <symbol id="icon-close" viewBox="0 0 24 24" fill="currentColor">
    <path fill-rule="evenodd" d="M5.47 5.47a.75.75 0 011.06 0L12 10.94l5.47-5.47a.75.75 0 111.06 1.06L13.06 12l5.47 5.47a.75.75 0 11-1.06 1.06L12 13.06l-5.47 5.47a.75.75 0 01-1.06-1.06L10.94 12 5.47 6.53a.75.75 0 010-1.06z" clip-rule="evenodd" />
  </symbol>
  <symbol id="icon-plus" viewBox="0 0 24 24" stroke-width="1.5" stroke="currentColor">
    <path stroke-linecap="round" stroke-linejoin="round" d="M12 4.5v15m7.5-7.5h-15" />
  </symbol>
  <symbol id="icon-minus" viewBox="0 0 24 24" stroke-width="1.5" stroke="currentColor">
    <path stroke-linecap="round" stroke-linejoin="round" d="M19.5 12h-15" />
  </symbol>
  <symbol id="icon-at-email" viewBox="0 0 24 24" stroke-width="1.5" stroke="currentColor" fill="none">
    <path stroke-linecap="round" d="M16.5 12a4.5 4.5 0 11-9 0 4.5 4.5 0 019 0zm0 0c0 1.657 1.007 3 2.25 3S21 13.657 21 12a9 9 0 10-2.636 6.364M16.5 12V8.25" />
  </symbol>
  <symbol id="icon-folder-plus" viewBox="0 0 24 24" stroke-width="1.5" stroke="currentColor" fill="none">
    <path stroke-linecap="round" stroke-linejoin="round" d="M12 10.5v6m3-3H9m4.06-7.19l-2.12-2.12a1.5 1.5 0 00-1.061-.44H4.5A2.25 2.25 0 002.25 6v12a2.25 2.25 0 002.25 2.25h15A2.25 2.25 0 0021.75 18V9a2.25 2.25 0 00-2.25-2.25h-5.379a1.5 1.5 0 01-1.06-.44z" />
  </symbol>
  <symbol id="icon-layers" viewBox="0 0 24 24" stroke-width="1.5" stroke="currentColor" fill="none">
    <path stroke-linecap="round" stroke-linejoin="round" d="M6.429 9.75L2.25 12l4.179 2.25m0-4.5l5.571 3 5.571-3m-11.142 0L2.25 7.5 12 2.25l9.75 5.25-4.179 2.25m0 0L21.75 12l-4.179 2.25m0 0l4.179 2.25L12 21.75 2.25 16.5l4.179-2.25m11.142 0l-5.571 3-5.571-3" />
  </symbol>
  <symbol id="icon-beaker" viewBox="0 0 24 24" stroke-width="1.5" stroke="currentColor" fill="none">
    <path stroke-linecap="round" stroke-linejoin="round" d="M9.75 3.104v5.714a2.25 2.25 0 01-.659 1.591L5 14.5M9.75 3.104c-.251.023-.501.05-.75.082m.75-.082a24.301 24.301 0 014.5 0m0 0v5.714c0 .597.237 1.17.659 1.591L19.8 15.3M14.25 3.104c.251.023.501.05.75.082M19.8 15.3l-1.57.393A9.065 9.065 0 0112 15a9.065 9.065 0 00-6.23-.693L5 14.5m14.8.8l1.402 1.402c1.232 1.232.65 3.318-1.067 3.611A48.309 48.309 0 0112 21c-2.773 0-5.491-.235-8.135-.687-1.718-.293-2.3-2.379-1.067-3.61L5 14.5" />
  </symbol>
  <symbol id="icon-user" viewBox="0 0 24 24" stroke-width="1.5" stroke="currentColor" fill="none">
    <path stroke-linecap="round" stroke-linejoin="round" d="M15.75 6a3.75 3.75 0 11-7.5 0 3.75 3.75 0 017.5 0zM4.501 20.118a7.5 7.5 0 0114.998 0A17.933 17.933 0 0112 21.75c-2.676 0-5.216-.584-7.499-1.632z" />
  </symbol>
  <symbol id="icon-users" viewBox="0 0 24 24" stroke-width="1.5" stroke="currentColor" fill="none">
    <path stroke-linecap="round" stroke-linejoin="round" d="M18 18.72a9.094 9.094 0 003.741-.479 3 3 0 00-4.682-2.72m.94 3.198l.001.031c0 .225-.012.447-.037.666A11.944 11.944 0 0112 21c-2.17 0-4.207-.576-5.963-1.584A6.062 6.062 0 016 18.719m12 0a5.971 5.971 0 00-.941-3.197m0 0A5.995 5.995 0 0012 12.75a5.995 5.995 0 00-5.058 2.772m0 0a3 3 0 00-4.681 2.72 8.986 8.986 0 003.74.477m.94-3.197a5.971 5.971 0 00-.94 3.197M15 6.75a3 3 0 11-6 0 3 3 0 016 0zm6 3a2.25 2.25 0 11-4.5 0 2.25 2.25 0 014.5 0zm-13.5 0a2.25 2.25 0 11-4.5 0 2.25 2.25 0 014.5 0z" />
  </symbol>
  <symbol id="icon-user-group" viewBox="0 0 24 24" stroke-width="1.5" stroke="currentColor" fill="none">
    <path strokeLinecap="round" strokeLinejoin="round" d="M15 19.128a9.38 9.38 0 002.625.372 9.337 9.337 0 004.121-.952 4.125 4.125 0 00-7.533-2.493M15 19.128v-.003c0-1.113-.285-2.16-.786-3.07M15 19.128v.106A12.318 12.318 0 018.624 21c-2.331 0-4.512-.645-6.374-1.766l-.001-.109a6.375 6.375 0 0111.964-3.07M12 6.375a3.375 3.375 0 11-6.75 0 3.375 3.375 0 016.75 0zm8.25 2.25a2.625 2.625 0 11-5.25 0 2.625 2.625 0 015.25 0z" />
  </symbol>
  <symbol id="icon-user-minus" viewBox="0 0 24 24" stroke-width="1.5" stroke="currentColor" fill="none">
    <path stroke-linecap="round" stroke-linejoin="round" d="M22 10.5h-6m-2.25-4.125a3.375 3.375 0 11-6.75 0 3.375 3.375 0 016.75 0zM4 19.235v-.11a6.375 6.375 0 0112.75 0v.109A12.318 12.318 0 0110.374 21c-2.331 0-4.512-.645-6.374-1.766z" />
  </symbol>
  <symbol id="icon-user-plus" viewBox="0 0 24 24" stroke-width="1.5" stroke="currentColor" fill="none">
    <path stroke-linecap="round" stroke-linejoin="round" d="M19 7.5v3m0 0v3m0-3h3m-3 0h-3m-2.25-4.125a3.375 3.375 0 11-6.75 0 3.375 3.375 0 016.75 0zM4 19.235v-.11a6.375 6.375 0 0112.75 0v.109A12.318 12.318 0 0110.374 21c-2.331 0-4.512-.645-6.374-1.766z" />
  </symbol>
  <symbol id="icon-cog" viewBox="0 0 24 24" stroke-width="1.5" stroke="currentColor" fill="none">
    <path stroke-linecap="round" stroke-linejoin="round" d="M4.5 12a7.5 7.5 0 0015 0m-15 0a7.5 7.5 0 1115 0m-15 0H3m16.5 0H21m-1.5 0H12m-8.457 3.077l1.41-.513m14.095-5.13l1.41-.513M5.106 17.785l1.15-.964m11.49-9.642l1.149-.964M7.501 19.795l.75-1.3m7.5-12.99l.75-1.3m-6.063 16.658l.26-1.477m2.605-14.772l.26-1.477m0 17.726l-.26-1.477M10.698 4.614l-.26-1.477M16.5 19.794l-.75-1.299M7.5 4.205L12 12m6.894 5.785l-1.149-.964M6.256 7.178l-1.15-.964m15.352 8.864l-1.41-.513M4.954 9.435l-1.41-.514M12.002 12l-3.75 6.495" />
  </symbol>
  <symbol id="icon-settings" viewBox="0 0 24 24" stroke-width="1.5" stroke="currentColor" fill="none">
    <path stroke-linecap="round" stroke-linejoin="round" d="M6 13.5V3.75m0 9.75a1.5 1.5 0 010 3m0-3a1.5 1.5 0 000 3m0 3.75V16.5m12-3V3.75m0 9.75a1.5 1.5 0 010 3m0-3a1.5 1.5 0 000 3m0 3.75V16.5m-6-9V3.75m0 3.75a1.5 1.5 0 010 3m0-3a1.5 1.5 0 000 3m0 9.75V10.5" />
  </symbol>
  <symbol id="icon-inbox-stack" viewBox="0 0 24 24" stroke-width="1.5" stroke="currentColor" fill="none">
    <path stroke-linecap="round" stroke-linejoin="round" d="M7.875 14.25l1.214 1.942a2.25 2.25 0 001.908 1.058h2.006c.776 0 1.497-.4 1.908-1.058l1.214-1.942M2.41 9h4.636a2.25 2.25 0 011.872 1.002l.164.246a2.25 2.25 0 001.872 1.002h2.092a2.25 2.25 0 001.872-1.002l.164-.246A2.25 2.25 0 0116.954 9h4.636M2.41 9a2.25 2.25 0 00-.16.832V12a2.25 2.25 0 002.25 2.25h15A2.25 2.25 0 0021.75 12V9.832c0-.287-.055-.57-.16-.832M2.41 9a2.25 2.25 0 01.382-.632l3.285-3.832a2.25 2.25 0 011.708-.786h8.43c.657 0 1.281.287 1.709.786l3.284 3.832c.163.19.291.404.382.632M4.5 20.25h15A2.25 2.25 0 0021.75 18v-2.625c0-.621-.504-1.125-1.125-1.125H3.375c-.621 0-1.125.504-1.125 1.125V18a2.25 2.25 0 002.25 2.25z" />
  </symbol>
  <symbol id="icon-face-down" viewBox="0 0 24 24" stroke-width="1.5" stroke="currentColor" fill="none">
    <path stroke-linecap="round" stroke-linejoin="round" d="M15.182 16.318A4.486 4.486 0 0012.016 15a4.486 4.486 0 00-3.198 1.318M21 12a9 9 0 11-18 0 9 9 0 0118 0zM9.75 9.75c0 .414-.168.75-.375.75S9 10.164 9 9.75 9.168 9 9.375 9s.375.336.375.75zm-.375 0h.008v.015h-.008V9.75zm5.625 0c0 .414-.168.75-.375.75s-.375-.336-.375-.75.168-.75.375-.75.375.336.375.75zm-.375 0h.008v.015h-.008V9.75z" />
  </symbol>
  <symbol id="icon-inbox" viewBox="0 0 24 24" stroke-width="1.5" stroke="currentColor" fill="none">
    <path stroke-linecap="round" stroke-linejoin="round" d="M2.25 13.5h3.86a2.25 2.25 0 012.012 1.244l.256.512a2.25 2.25 0 002.013 1.244h3.218a2.25 2.25 0 002.013-1.244l.256-.512a2.25 2.25 0 012.013-1.244h3.859m-19.5.338V18a2.25 2.25 0 002.25 2.25h15A2.25 2.25 0 0021.75 18v-4.162c0-.224-.034-.447-.1-.661L19.24 5.338a2.25 2.25 0 00-2.15-1.588H6.911a2.25 2.25 0 00-2.15 1.588L2.35 13.177a2.25 2.25 0 00-.1.661z" />
  </symbol>
  <symbol id="icon-pencil-square" viewBox="0 0 24 24" stroke-width="1.5" stroke="currentColor" fill="none">
    <path stroke-linecap="round" stroke-linejoin="round" d="M16.862 4.487l1.687-1.688a1.875 1.875 0 112.652 2.652L10.582 16.07a4.5 4.5 0 01-1.897 1.13L6 18l.8-2.685a4.5 4.5 0 011.13-1.897l8.932-8.931zm0 0L19.5 7.125M18 14v4.75A2.25 2.25 0 0115.75 21H5.25A2.25 2.25 0 013 18.75V8.25A2.25 2.25 0 015.25 6H10" />
  </symbol>
  <symbol id="icon-trash" viewBox="0 0 24 24" stroke-width="1.5" stroke="currentColor" fill="none">
    <path stroke-linecap="round" stroke-linejoin="round" d="M14.74 9l-.346 9m-4.788 0L9.26 9m9.968-3.21c.342.052.682.107 1.022.166m-1.022-.165L18.16 19.673a2.25 2.25 0 01-2.244 2.077H8.084a2.25 2.25 0 01-2.244-2.077L4.772 5.79m14.456 0a48.108 48.108 0 00-3.478-.397m-12 .562c.34-.059.68-.114 1.022-.165m0 0a48.11 48.11 0 013.478-.397m7.5 0v-.916c0-1.18-.91-2.164-2.09-2.201a51.964 51.964 0 00-3.32 0c-1.18.037-2.09 1.022-2.09 2.201v.916m7.5 0a48.667 48.667 0 00-7.5 0" />
  </symbol>
  <symbol id="icon-no-symbol" viewBox="0 0 24 24" stroke-width="1.5" stroke="currentColor" fill="none">
    <path stroke-linecap="round" stroke-linejoin="round" d="M18.364 18.364A9 9 0 005.636 5.636m12.728 12.728A9 9 0 015.636 5.636m12.728 12.728L5.636 5.636" />
  </symbol>
  <symbol id="icon-circle-stack" viewBox="0 0 24 24" stroke-width="1.5" stroke="currentColor" fill="none">
    <path stroke-linecap="round" stroke-linejoin="round" d="M20.25 6.375c0 2.278-3.694 4.125-8.25 4.125S3.75 8.653 3.75 6.375m16.5 0c0-2.278-3.694-4.125-8.25-4.125S3.75 4.097 3.75 6.375m16.5 0v11.25c0 2.278-3.694 4.125-8.25 4.125s-8.25-1.847-8.25-4.125V6.375m16.5 0v3.75m-16.5-3.75v3.75m16.5 0v3.75C20.25 16.153 16.556 18 12 18s-8.25-1.847-8.25-4.125v-3.75m16.5 0c0 2.278-3.694 4.125-8.25 4.125s-8.25-1.847-8.25-4.125" />
  </symbol>
  <symbol id="icon-eye" viewBox="0 0 24 24" stroke-width="1.5" stroke="currentColor" fill="none">
    <path stroke-linecap="round" stroke-linejoin="round" d="M2.036 12.322a1.012 1.012 0 010-.639C3.423 7.51 7.36 4.5 12 4.5c4.638 0 8.573 3.007 9.963 7.178.07.207.07.431 0 .639C20.577 16.49 16.64 19.5 12 19.5c-4.638 0-8.573-3.007-9.963-7.178z" />
    <path stroke-linecap="round" stroke-linejoin="round" d="M15 12a3 3 0 11-6 0 3 3 0 016 0z" />
  </symbol>
  <symbol id="icon-window" viewBox="0 0 24 24" stroke-width="1.5" stroke="currentColor" fill="none">
    <path stroke-linecap="round" stroke-linejoin="round" d="M3 8.25V18a2.25 2.25 0 002.25 2.25h13.5A2.25 2.25 0 0021 18V8.25m-18 0V6a2.25 2.25 0 012.25-2.25h13.5A2.25 2.25 0 0121 6v2.25m-18 0h18M5.25 6h.008v.008H5.25V6zM7.5 6h.008v.008H7.5V6zm2.25 0h.008v.008H9.75V6z" />
  </symbol>
  <symbol id="icon-loading" viewBox="0 0 24 24" stroke-width="1.5" stroke="currentColor" fill="none">
    <path stroke-linecap="round" stroke-linejoin="round" d="M16.023 9.348h4.992v-.001M2.985 19.644v-4.992m0 0h4.992m-4.993 0l3.181 3.183a8.25 8.25 0 0013.803-3.7M4.031 9.865a8.25 8.25 0 0113.803-3.7l3.181 3.182m0-4.991v4.99" />
  </symbol>
  <symbol id="icon-check" viewBox="0 0 24 24" stroke-width="1.5" stroke="currentColor" fill="none">
    <path stroke-linecap="round" stroke-linejoin="round" d="M4.5 12.75l6 6 9-13.5" />
  </symbol>
</svg>