<svg xmlns="http://www.w3.org/2000/svg" version="1.0">
    <symbol id="logo-mailchimp" fill="currentColor" viewBox="0 0 412 412">
        <path
            d="M174.8 4c-11.6 2.1-25.7 7.9-39.8 16.5C73.4 57.9 10.8 138.9 6.2 187c-.9 9.6.1 19.3 2.6 25.1 2.1 4.9 6.1 9.3 15.7 17.5l5.9 5.1-1.7 7c-.9 4-1.7 11-1.7 16 0 19.2 7.4 34.7 22.8 47.6 9.2 7.8 25.5 14.6 35.3 14.8 3.2 0 3.6.5 6.9 7.2 9.9 20.4 30 43.1 49 55.7 38.5 25.3 86.5 33.8 135.2 23.9 38.1-7.7 72.8-30 92.4-59.6 13-19.7 21.4-44 21.4-62.2 0-11.8-3.5-19.2-10.7-22.6-4-1.9-4.4-2.4-7.1-10.9l-2.9-8.9 2.6-5.6c3.5-7.5 3.6-18.4.3-25.3-4.8-9.8-17-17.9-34.7-22.9-4.4-1.2-8.1-2.3-8.3-2.5-.2-.1-.7-8.9-1.2-19.5-1.2-26.1-4.4-37.6-14.2-50.7l-3.9-5.2 5.7-6.8c25.9-30.4 31.5-60.6 14.3-76.7-8.6-8-19.5-11.5-36-11.5-17.4 0-32.4 3.4-53.7 12.1l-9.5 3.9-12.2-11.9C208.3 10.2 205.3 7.9 200.4 6c-6.6-2.5-18.2-3.4-25.6-2zM193 19c2.4.7 6.6 4 13.4 10.9l9.9 9.9-3.3 1.7c-12.2 6.3-38.3 24.4-57.5 39.9-34.4 27.7-61.9 64.5-79.1 105.5l-5.7 13.8-6.6 2.1c-8.1 2.7-17.7 8.8-23 14.8l-3.9 4.5-5.4-4.7c-7.4-6.5-9.6-10-10.9-16.7-2.9-16.2 7.9-45.2 28.6-76.2 22.1-33.2 53.7-65 85-85.8C157.6 23.4 180.8 15.6 193 19zm49 55.6c0 .3-1.3 1.9-3 3.6-1.6 1.6-3 3.3-3 3.7 0 .4 4.7 1.4 10.4 2.3 10.5 1.7 26.6 7.1 26.6 9 0 .6-1 .8-2.4.4-13.1-3.3-40.5-3.9-55.5-1.2-20.1 3.6-44.7 12.9-58.1 21.9-3 2-5.6 3.4-5.9 3.1-.9-.9 20.6-21.5 28.9-27.6 7.5-5.7 18.8-12.8 20.1-12.8.4 0-.1 2.3-1.2 5-3.1 8.2-2.6 8.6 5 4 9.8-6 38.1-14.5 38.1-11.4zm58.7 55.5c8.9 4.3 11.6 13.5 13.1 43.8.9 16.6 1.3 19.8 2.9 22 1.5 1.9 5 3.5 14.9 6.6 12.2 3.9 19 6.9 22.4 9.7 8.3 6.9 8.1 17.2-.6 26.7-4.4 5-17.8 14-26 17.7-24.3 10.9-53.2 15.5-82.5 13.3l-15.6-1.2-4.3 2.4c-6.7 3.7-10.4 10.3-10.8 19.6-.4 6.4-.1 8 2.2 12.8 13.5 27.4 82 27 123.1-.8 7.3-4.9 17.4-14.9 15.8-15.4-.7-.3-4.5 1.5-8.5 3.8-15.6 9.1-35.3 16.9-51.8 20.5-11.4 2.5-34.6 3-45 1-11.7-2.2-20.2-6.5-23.4-11.8-1.4-2.3-2.3-4.5-2-4.9.2-.4 3.7.1 7.6 1.2 11.6 3 25.5 4.1 36.6 2.8 10.5-1.2 19.3-3.7 20-5.6.3-1-2.2-1.2-11.5-.7-13.3.8-28.2-.6-41.3-3.8-10.8-2.5-12.2-3.7-8.7-7.2l2.6-2.6 21.8.7c24.1.7 35-.2 52-4.2 18.2-4.3 34.8-11.3 47.7-19.9 3.8-2.6 7.3-4.3 7.7-3.9.5.5 2 5.1 3.5 10.4 2.7 9.4 2.8 9.6 6.3 10.5 2.4.6 4.1 1.9 5.5 4.3 1.8 3.1 1.9 4 .8 11.2-3.2 21.9-15.1 41.2-35.1 57.1-13.1 10.5-35.8 20-54.5 22.9-9.4 1.5-33.4.6-41.1-1.5-29.2-7.9-48-24.4-56.2-49.1-2.4-7.1-2.7-9.6-2.7-22-.1-11.8.3-15.3 2.2-22 2.9-9.9 7.7-19.2 14.2-27.2 2.8-3.4 5-7 5-8.1 0-1-2.7-5-6-8.8-14.9-17.3-20-28.1-20-42.4 0-18 9.3-33.2 24.9-40.7 6.5-3.1 12.2-3.4 35.7-1.9 13 .8 14.6.7 21-1.2 4.9-1.5 9.1-3.8 14.4-7.9 11.2-8.6 16.1-9.9 23.7-6.2zM95.5 218.9c10.8 5.1 18.9 16.1 22.1 29.8 2.3 9.8 1.5 28.8-1.4 36.4-4.4 11-13.4 18.2-24.5 19.5-16.5 1.9-36.7-10.6-45.3-28.2-3.8-7.7-3.9-8-3.8-18.9.1-12.6 1.7-18 7.9-26.5 7.2-9.8 17.8-14.9 31-15 6.8 0 8.9.4 14 2.9z" />
        <path
            d="M290 167c-1.4 1.4-2 3.3-2 6.2 0 5.6 2.6 16.3 4.7 19.9 1.5 2.5 2.4 2.9 6 2.9 2.3 0 4.5-.5 4.9-1.2 1.3-2.1.7-13.2-1.1-19.4-2.7-9.6-7.9-13-12.5-8.4zm-66.7 25.4c-7.6 2.4-13.3 6.9-13.3 10.5 0 1.5 4 1.4 8.9-.4 8.2-2.8 15.8-2.8 23.6 0 12.3 4.6 13.3 4.4 9.9-1.4-2.1-3.6-7.1-6.9-13-8.7-5.7-1.7-10.5-1.7-16.1 0zm74.4 14.4c-3.5 3.9-.9 13.2 3.6 13.2 3.5 0 6.3-6.3 4.7-10.6-1.8-4.7-5.4-5.8-8.3-2.6zm-66.4 3.1c-4.3 2-7.2 5.6-5.6 7.2.6.6 2.9.3 5.9-.6 2.7-.8 8.4-1.5 12.7-1.5 6.9 0 7.8-.2 7.5-1.8-.5-2.5-6.6-5.2-11.8-5.2-2.5 0-6.4.9-8.7 1.9zm44 5.8c-2.3.9-1.5 6 1.3 8.2 3.5 2.7 9 2.8 10.4.2 1.5-2.9 1.3-3.9-1.5-6.6-2.3-2.4-6.9-3.2-10.2-1.8zM70.8 233c-7.3 3.9-11.8 12-11.8 20.9 0 7.2 4.6 6.7 6.8-.7 1.5-4.8 5.7-8.9 10.2-9.7 4.2-.8 9.7 2.4 11.9 7 1.2 2.5 1.2 3.7-.4 9.7-2.5 9.6-1.7 16 2.4 20.1 2.6 2.6 3.9 3.2 7.6 3.2 3.2 0 5-.6 6.6-2.2 3-3 1.9-5.5-2.1-4.7-4 .8-8-1.8-8-5.2 0-1.3 1.1-5.2 2.5-8.5 4-9.5 4.3-13.8 1-20.4-3.7-7.6-8.6-10.8-16.9-11.2-4.6-.3-7 .2-9.8 1.7z" />
    </symbol>
    <symbol id="logo-mailjet" fill="#6f67d9" viewBox="-5 -5 32 32">
        <path
            d="m.11 10.19 8.56 3.88 1.72-1.71-4.38-1.99 13.58-5.2-5.22 13.52-1.98-4.34-1.73 1.72.09.2 3.79 8.31 9.03-23.37z"
            mask="url(#Mailjet-Logo_svg__b)"></path>
    </symbol>
    <symbol id="logo-mailgun" viewBox="0 0 256 256">
        <path fill="#AF252A"
            d="M127.998 105.848c12.238 0 22.157 9.917 22.157 22.151 0 12.237-9.919 22.156-22.157 22.156-12.234 0-22.153-9.922-22.153-22.156 0-12.234 9.919-22.151 22.153-22.151zm-75.485 22.151c0-41.69 33.796-75.485 75.485-75.485 41.695 0 75.488 33.795 75.488 75.485 0 2.76-.147 5.482-.436 8.16-.573 7.359 4.827 12.976 12.139 12.976 12.409 0 13.731-16 13.731-21.136 0-55.74-45.183-100.922-100.922-100.922S27.077 72.26 27.077 127.999c0 55.736 45.182 100.92 100.92 100.92 29.602 0 56.227-12.737 74.689-33.035l20.747 17.422c-23.435 26.197-57.51 42.698-95.435 42.698C57.306 256.004 0 198.692 0 127.999S57.306 0 127.998 0C198.694 0 256 57.306 256 128c0 28.415-13.53 51.49-40.706 51.49-11.96 0-19.23-5.48-23.2-11.596-13.33 21.368-37.048 35.596-64.096 35.596-41.69 0-75.485-33.801-75.485-75.49zm75.485-48.41c-26.734 0-48.41 21.673-48.41 48.41s21.676 48.412 48.41 48.412c26.736 0 48.413-21.675 48.413-48.412s-21.677-48.41-48.413-48.41z" />
    </symbol>
    <symbol id="logo-sendgrid" viewBox="0 0 256 256">
        <path fill="#9DE1F3" d="M85.334 85.333H0V256h170.667V85.333z" />
        <path fill="#27B4E1" d="M85.334 0v170.666H256V0z" />
        <path fill="#1A82E2" d="M0 256h85.333v-85.333H0zM170.667 85.333H256V0h-85.333z" />
        <path fill="#239FD7" d="M85.334 170.667h85.333V85.334H85.334z" />
    </symbol>
    <symbol id="logo-sendinblue" viewBox="-3 0 102 102">
        <path fill="#0092ff"
            d="M85.213 73.712a20.181 20.181 0 0 1-11.867 9.307 27.21 27.21 0 0 0 1.086-7.565c0-12.75-8.787-23.444-20.582-26.356a19.938 19.938 0 0 1 8.767-5.001 19.865 19.865 0 0 1 15.243 2.018c9.593 5.571 12.891 17.95 7.353 27.597M47.421 95.655c-5.247 0-10.238-2.096-13.941-5.675a26.782 26.782 0 0 0 7.05-2.842c10.976-6.373 15.791-19.367 12.408-31.093 8.399 2.42 14.571 10.196 14.571 19.409 0 11.137-9.013 20.201-20.088 20.201M9.627 73.712c-2.623-4.57-3.302-9.954-2.076-14.962a27.2 27.2 0 0 0 5.967 4.704 26.74 26.74 0 0 0 13.462 3.634 27.036 27.036 0 0 0 19.522-8.356c2.107 8.52-1.505 17.771-9.433 22.375a19.882 19.882 0 0 1-10.01 2.702A20.084 20.084 0 0 1 9.626 73.712m0-43.886a20.181 20.181 0 0 1 11.868-9.307 27.159 27.159 0 0 0-1.088 7.567c0 12.743 8.783 23.434 20.572 26.351-6.284 6.106-16.066 7.592-23.998 2.986-4.648-2.7-7.971-7.055-9.36-12.268a20.169 20.169 0 0 1 2.006-15.329M47.421 7.883c5.249 0 10.235 2.094 13.935 5.67A27.035 27.035 0 0 0 54.31 16.4c-6.25 3.63-10.72 9.487-12.586 16.497a27.106 27.106 0 0 0 .17 14.595c-8.395-2.422-14.562-10.197-14.562-19.406 0-11.14 9.011-20.203 20.089-20.203m37.792 21.943c2.626 4.576 3.306 9.966 2.072 14.98a26.999 26.999 0 0 0-5.962-4.722c-6.25-3.627-13.529-4.591-20.5-2.713a26.8 26.8 0 0 0-12.492 7.454 20.2 20.2 0 0 1 .082-10.126c1.387-5.212 4.711-9.569 9.359-12.268 4.647-2.697 10.06-3.414 15.243-2.018 5.183 1.397 9.514 4.74 12.198 9.413m5.997-3.48c-3.608-6.285-9.433-10.78-16.404-12.658a27.128 27.128 0 0 0-5.035-.852C64.771 5.442 56.378.92 47.421.92c-9.277 0-17.474 4.729-22.34 11.913-8.873.656-16.97 5.706-21.45 13.511C.021 32.628-.936 39.95.93 46.96a27.532 27.532 0 0 0 1.785 4.81c-3.867 8.053-3.565 17.623.914 25.425 4.638 8.078 12.806 12.847 21.424 13.495 5 7.4 13.41 11.93 22.367 11.93 9.276 0 17.473-4.73 22.338-11.915a27.104 27.104 0 0 0 21.451-13.51c4.639-8.08 4.663-17.583.909-25.412 3.872-8.057 3.572-17.631-.909-25.437" />
    </symbol>
    <symbol id="logo-mandrill" viewBox="0 0 256 227">
        <path fill="#E6E6E1" d="M.832.452h254.849v225.642H.832V.452z" />
        <path fill="#D8D8D3" d="M255.68.452H.833L128.264 186.69 255.68.451" />
        <path fill="#B4B6B4" d="M101.3 226.094h53.926l-26.962-39.403-26.965 39.403" />
        <path fill="#1A1918"
            d="M128.302 118.827 73.94 39.038v68.492l31.042 45.595 23.267-34.23.053-.068" />
        <path fill="#ED9D4A" d="m128.302 118.827 23.412 34.371 30.844-45.097V39.038l-54.256 79.79" />
        <path fill="#BB7731"
            d="m128.25 118.895-23.268 34.23 23.344 34.273 23.388-34.2-23.412-34.37-.053.067" />
        <path fill="#4CB2D4" d="M35.333 187.49H73.94v-79.96L35.333 50.86v136.63" />
        <path fill="#1B82AD" d="M35.333 39.038v11.823L73.94 107.53V39.038H35.333" />
        <path fill="#C02439" d="M182.558 108.101v79.388h38.593V51.683L182.558 108.1" />
        <path fill="#8F202F" d="M221.15 39.038h-38.592v69.063l38.593-56.418V39.038" />
    </symbol>
    <symbol id="logo-postmark" viewBox="0 0 210 107">
        <g fill="#000" fill-rule="evenodd" clip-rule="evenodd" opacity=".2">
            <path
                d="M159.378 42.988c-8.531 8.143-24.915 13.67-43.819 13.67-14.057 0-26.757-3.103-35.87-8.047-10.47-5.72-24.915-13.67-43.82-13.67-14.056 0-26.756 3.103-35.869 8.047V39.11c9.113-4.944 21.813-8.046 35.87-8.046 18.904 0 33.35 7.95 43.82 13.669 9.112 4.944 21.812 8.046 35.869 8.046 18.904 0 35.288-5.526 43.819-13.669v3.878Z" />
            <path
                d="M159.378 59.469c-8.531 8.143-24.915 13.669-43.819 13.669-14.057 0-26.757-3.102-35.87-8.047-10.47-5.72-24.915-13.669-43.82-13.669-14.056 0-26.756 3.102-35.869 8.047V55.59c9.113-4.944 21.813-8.047 35.87-8.047 18.904 0 33.35 7.95 43.82 13.67 9.112 4.944 21.812 8.046 35.869 8.046 18.904 0 35.288-5.526 43.819-13.67v3.879Z" />
            <path
                d="M159.378 75.95c-8.531 8.143-24.915 13.669-43.819 13.669-14.057 0-26.757-3.103-35.87-8.047-10.47-5.72-24.915-13.669-43.82-13.669-14.056 0-26.756 3.102-35.869 8.046v-3.877c9.113-4.945 21.813-8.047 35.87-8.047 18.904 0 33.35 7.95 43.82 13.67 9.112 4.944 21.812 8.046 35.869 8.046 18.904 0 35.288-5.526 43.819-13.67v3.878Z" />
            <path
                d="M159.378 92.43c-8.531 8.144-24.915 13.669-43.819 13.669-14.057 0-26.757-3.102-35.87-8.046-10.47-5.72-24.915-13.67-43.82-13.67-14.056 0-26.756 3.103-35.869 8.047v-3.878c9.113-4.944 21.813-8.046 35.87-8.046 18.904 0 33.35 7.95 43.82 13.67 9.112 4.943 21.812 8.046 35.869 8.046 18.904 0 35.288-5.526 43.819-13.67v3.878Z" />
        </g>
        <path fill="#000"
            d="M66.953 88.855h3.578a2.75 2.75 0 0 0 2.967-2.967V44.7a2.75 2.75 0 0 0-2.967-2.967h-3.578V32.57h26.004c13.963 0 25.045 7.069 25.045 20.594 0 13.526-11.082 20.681-25.045 20.681h-8.9v12.043a2.774 2.774 0 0 0 3.054 2.967h7.242v9.162h-27.4v-9.162Zm25.22-24.608c9.249 0 14.573-3.84 14.573-10.995 0-7.243-5.324-10.996-14.573-10.996h-8.116v21.99h8.115Zm26.09 9.948c0-14.05 10.646-25.219 24.609-25.219 14.224 0 24.782 11.17 24.782 25.219 0 14.31-10.558 25.219-24.782 25.219-14.05 0-24.609-10.908-24.609-25.22Zm38.483 0c0-9.076-5.672-15.882-13.874-15.882-8.028 0-13.7 6.806-13.7 15.882 0 9.075 5.672 15.882 13.7 15.882 8.202 0 13.874-6.807 13.874-15.882Zm24.608 19.023-.349 4.8h-9.076V82.31h9.337v.174a8.853 8.853 0 0 0 2.53 4.887 10.703 10.703 0 0 0 7.942 3.054 8.456 8.456 0 0 0 6.021-2.094 6.084 6.084 0 0 0 1.745-4.276 5.25 5.25 0 0 0-1.484-3.926 8.797 8.797 0 0 0-4.798-2.182l-8.116-1.57c-4.101-.786-7.155-2.269-9.249-4.276a12.05 12.05 0 0 1-3.317-8.726 14.625 14.625 0 0 1 4.014-10.123 15.776 15.776 0 0 1 11.17-4.276c4.712 0 8.901 1.745 11.519 5.41l.349-4.1h8.639v13.35h-8.988v-.175a6.57 6.57 0 0 0-3.578-4.276 11.707 11.707 0 0 0-5.323-1.308 8.522 8.522 0 0 0-6.021 2.094 4.158 4.158 0 0 0-1.396 3.315 3.832 3.832 0 0 0 1.134 3.054 7.524 7.524 0 0 0 3.84 1.658l8.116 1.57c4.624.873 8.027 2.443 10.209 4.625a13.36 13.36 0 0 1 3.665 9.774 15.62 15.62 0 0 1-4.452 11.17 15.04 15.04 0 0 1-10.646 4.277 16.386 16.386 0 0 1-13.437-6.196ZM222.715 81.7V62.5a2.789 2.789 0 0 0-.77-2.22 2.782 2.782 0 0 0-2.197-.833h-6.02v-9.163h8.987V36.323h10.297v13.962h14.398v9.162h-11.344a2.798 2.798 0 0 0-3.053 3.054V81.7c0 4.8 2.879 7.592 8.027 7.592 1.919 0 5.061-.436 6.37-1.221v9.599c-1.57.872-4.798 1.308-7.505 1.308-10.646 0-17.19-6.457-17.19-17.278Zm32.461 7.155h2.793a2.78 2.78 0 0 0 2.881-1.776c.144-.38.203-.786.173-1.191V62.5a2.813 2.813 0 0 0-.152-1.213 2.805 2.805 0 0 0-2.902-1.84h-2.793v-9.163h15.795v7.417c2.704-5.323 9.424-8.726 15.794-8.726 6.632 0 12.217 3.316 15.009 9.075a21.092 21.092 0 0 1 16.929-9.075c10.297 0 16.841 6.108 16.841 15.881v21.03a2.775 2.775 0 0 0 3.054 2.967h2.706v9.163h-22.95v-9.162h3.753a2.747 2.747 0 0 0 2.807-1.794c.138-.375.192-.776.159-1.173v-19.46c0-5.497-3.316-8.638-8.726-8.638-7.767 0-12.828 5.584-12.828 13.612v14.486a2.74 2.74 0 0 0 .796 2.17 2.757 2.757 0 0 0 2.171.797h3.84v9.162h-24.085v-9.162h3.84a2.75 2.75 0 0 0 2.968-2.967V66.515c0-5.497-3.317-8.725-8.727-8.725-7.854 0-12.828 5.584-12.828 13.787v14.31a2.71 2.71 0 0 0 2.967 2.968h3.752v9.162h-23.037v-9.162Zm139.709 0v9.162h-14.66v-10.21a16.283 16.283 0 0 1-3.054 4.887 22.144 22.144 0 0 1-16.144 6.72c-8.726 0-14.747-5.585-14.834-13.352 0-10.122 8.552-13.438 19.111-15.532 5.584-1.135 10.733-1.833 13.001-4.101a3.772 3.772 0 0 0 1.222-2.88c0-3.228-2.443-5.759-8.639-5.759-7.242 0-13.089 3.578-13.874 7.68v.174h-8.552v-15.36h9.25v5.498c3.577-4.625 9.686-6.806 15.445-6.806 9.512 0 15.969 5.846 15.969 15.445v21.467a2.71 2.71 0 0 0 2.967 2.967h2.792Zm-15.184-14.311c-2.094 1.745-6.108 2.53-9.947 3.315-6.545 1.396-12.828 2.705-12.828 7.68 0 3.14 2.88 5.322 6.719 5.322a15.699 15.699 0 0 0 10.995-4.974 17.273 17.273 0 0 0 5.061-11.343Zm21.554 14.311h3.665a2.707 2.707 0 0 0 2.967-2.967V62.5a2.739 2.739 0 0 0-2.967-3.054h-3.665v-9.162h16.668v8.726a16.699 16.699 0 0 1 15.183-10.035 10.385 10.385 0 0 1 3.839.698v9.948a14.92 14.92 0 0 0-4.537-.61c-8.116 0-14.049 4.624-14.049 13.787v13.089a2.779 2.779 0 0 0 1.858 2.828c.384.133.792.18 1.196.139h5.933v9.162h-26.091v-9.162Zm37.958 0h3.665a2.707 2.707 0 0 0 2.967-2.967V42.082a2.71 2.71 0 0 0-2.967-2.966h-3.665v-9.163h17.104v41.973l18.063-21.641h14.136v9.162h-6.457a6.482 6.482 0 0 0-5.585 2.706l-8.29 10.122 12.828 14.05a7.249 7.249 0 0 0 5.76 2.53H490v9.162h-12.566l-21.117-24.695v12.566a2.779 2.779 0 0 0 1.858 2.828c.384.133.792.18 1.196.139h3.577v9.162h-23.735v-9.162ZM143.341 14.831a.875.875 0 0 0-1.162 0c-1.073.883-2.325 1.345-3.711 1.345-2.459 0-4.65-1.513-4.65-4.916 0-3.445 2.057-4.916 4.292-4.916 2.772 0 4.158 2.101 4.203 4.118h-5.723c-.492 0-.894.378-.894.84v.798h7.69a1.11 1.11 0 0 0 1.118-1.092c-.135-3.991-2.817-6.512-6.394-6.512-3.8 0-6.617 2.899-6.617 6.764s2.951 6.764 6.886 6.764c2.324 0 4.157-.84 5.767-2.52l-.805-.673Zm23.83-9.117c1.252-.546 2.906-1.134 5.097-1.134 3.8 0 5.901 1.848 5.901 5.252v7.94h-1.296c-.492 0-.895-.378-.895-.84v-.882c-.894.966-2.369 1.974-4.783 1.974-2.504 0-5.187-1.302-5.187-4.117 0-2.689 2.236-4.244 5.947-4.244h2.325v.799a.859.859 0 0 1-.939.84h-1.207c-2.415 0-3.845.966-3.845 2.563 0 1.68 1.699 2.437 3.308 2.437 2.504 0 4.426-1.429 4.426-3.32V9.917c0-2.185-1.386-3.362-3.934-3.362-1.297 0-2.414.294-3.353.63-.447.169-.984-.041-1.118-.504l-.447-.966Zm-53.069-3.402h-1.342c-.491 0-.894-.379-.894-.84V.21h1.342c.491 0 .894.378.894.84v1.26Zm126.078 0h-1.341c-.492 0-.894-.379-.894-.84V.21h1.341c.492 0 .894.378.894.84v1.26ZM99.08 6.848c-1.073-1.092-2.772-2.394-5.589-2.394-3.979 0-7.064 2.983-7.064 6.806 0 3.781 3.13 6.764 7.064 6.764 2.861 0 4.605-1.428 5.723-2.605l-.85-.756a.936.936 0 0 0-1.207 0c-1.073.925-2.28 1.429-3.577 1.429-2.727 0-4.873-2.143-4.873-4.874s2.102-4.832 4.74-4.832c1.52 0 2.592.63 3.531 1.429.358.294.895.294 1.207-.042l.895-.925Zm24.5 10.924c.581 0 1.118-.336 1.341-.84l5.633-12.142h-1.207c-.76 0-1.43.42-1.699 1.05l-4.023 9.033-4.024-9.033c-.268-.63-.939-1.05-1.699-1.05h-1.252l5.589 12.142c.223.504.76.84 1.341.84Zm-15.022-2.268c-.671.294-1.431.504-2.101.504-1.476 0-2.146-.672-2.146-2.017v-7.31h4.292V5.63c0-.462-.403-.84-.895-.84h-3.397V1.05c0-.462-.403-.84-.895-.84h-1.341v14.116c0 1.975 1.61 3.697 3.8 3.697.984 0 1.923-.168 2.728-.588l-.045-1.932Zm4.202 2.268h1.342V5.63c0-.462-.403-.84-.894-.84h-1.342v12.142c-.044.462.358.84.894.84Zm51.371-14.915C162.521 1.429 160.42 0 156.798 0c-5.365 0-9.433 3.907-9.433 9.075 0 5.126 4.024 9.034 9.344 9.034 3.711 0 5.946-1.64 7.511-3.152l-.939-.882c-.313-.294-.849-.294-1.207-.042-1.475 1.219-3.085 2.017-5.32 2.017-3.935 0-6.975-3.11-6.975-7.059 0-3.991 2.996-6.974 6.975-6.974 2.28 0 3.979.966 5.186 1.89a.89.89 0 0 0 1.207-.084l.984-.966Zm33.263 1.639c-2.012 0-3.577.798-4.784 2.436-.894-1.554-2.414-2.436-4.381-2.436-2.191 0-3.398 1.05-4.248 2.142V5.63c0-.462-.402-.84-.894-.84h-1.341v12.982h1.341c.492 0 .894-.378.894-.84v-6.554c0-2.27 1.52-3.908 3.666-3.908 2.102 0 3.354 1.387 3.354 3.698v6.764c0 .462.402.84.894.84h1.341v-7.478c0-2.647 1.833-3.824 3.621-3.824 2.146 0 3.398 1.345 3.398 3.74v6.722c0 .462.403.84.894.84h1.342V9.748c.044-3.236-1.923-5.252-5.097-5.252Zm16.184 0c-2.056 0-3.71.84-5.096 2.605V5.63c0-.462-.403-.84-.895-.84h-1.341v16.134c0 .462.403.84.894.84h1.342v-6.218c1.296 1.638 3.04 2.479 5.096 2.479 3.219 0 6.617-2.395 6.617-6.765 0-4.412-3.442-6.764-6.617-6.764Zm4.292 6.764c0 2.857-1.922 4.832-4.649 4.832-2.37 0-4.784-1.807-4.784-4.832s2.414-4.832 4.784-4.832c2.682 0 4.649 2.06 4.649 4.832Zm20.924 6.512h1.341V5.63c0-.462-.402-.84-.894-.84H237.9v12.142c0 .462.402.84.894.84Zm5.052 2.143a11.738 11.738 0 0 0 6.349 1.849c4.471 0 7.019-2.311 7.019-6.344V4.79h-1.341c-.492 0-.894.378-.894.84v1.218c-1.342-1.554-3.085-2.352-5.187-2.352-3.219 0-6.482 2.31-6.482 6.176 0 3.95 3.353 6.092 6.482 6.092 2.057 0 3.801-.798 5.187-2.479v1.177c0 2.815-1.744 4.411-4.829 4.411a9.072 9.072 0 0 1-4.515-1.218c-.448-.252-.984-.126-1.208.294l-.581.966Zm11.133-9.285c0 2.647-2.459 4.243-4.874 4.243-2.593 0-4.56-1.806-4.56-4.243 0-2.437 1.923-4.202 4.56-4.202 2.415 0 4.874 1.555 4.874 4.202Zm12.697-6.134c-1.923 0-3.443.756-4.516 2.226V5.63c0-.462-.402-.84-.894-.84h-1.341v12.982h1.341c.492 0 .894-.378.894-.84v-6.596c0-2.27 1.61-3.866 3.935-3.866 2.28 0 3.621 1.387 3.621 3.74v6.722c0 .462.402.84.894.84h1.342V9.705c.044-3.15-2.012-5.21-5.276-5.21Zm26.915 6.47-11.58 7.227a1.675 1.675 0 0 0-.805 1.428v1.807l14.039-8.655c.626-.42 1.028-1.093 1.028-1.807s-.358-1.387-1.028-1.807L282.206.59v1.68c0 .588.313 1.134.805 1.428l11.58 7.269Z" />
        <path fill="#000"
            d="M287.616 11.554a2.007 2.007 0 0 0 2.057 0l.983-.63-7.332-4.664c-.447-.294-1.118 0-1.118.546v1.387l3.8 2.395 1.61.966Zm-64.202-5.84c1.252-.546 2.906-1.134 5.097-1.134 3.8 0 5.902 1.848 5.902 5.252v7.94h-1.297c-.492 0-.894-.378-.894-.84v-.882c-.894.966-2.37 1.974-4.784 1.974-2.504 0-5.186-1.302-5.186-4.117 0-2.689 2.235-4.244 5.946-4.244h2.325v.799a.858.858 0 0 1-.939.84h-1.207c-2.414 0-3.845.966-3.845 2.563 0 1.68 1.699 2.437 3.309 2.437 2.503 0 4.426-1.429 4.426-3.32V9.917c0-2.185-1.386-3.362-3.935-3.362-1.296 0-2.414.294-3.353.63-.447.169-.983-.041-1.118-.504l-.447-.966ZM84.37 17.772h1.297L77.62 1.092C77.216.336 76.77.21 76.1.21c-.671 0-1.163.126-1.476.84l-8.048 16.722h1.208c.715 0 1.385-.42 1.698-1.008l1.7-3.53h6.393c.492 0 .894-.377.894-.84V11.26h-6.393l4.023-8.403 6.572 13.865c.269.63.94 1.05 1.7 1.05Z" />
    </symbol>
    <symbol id="logo-mailpace" viewBox="0 0 192 192">
        <path fill="#f5910d"
            d="M92.0147 3.9375C82.8205 7.94499 73.2454 20.856 66.4252 28.1119 52.1081 43.3434 36.6129 57.5466 21.9198 72.4244 15.7188 78.7032 1.74327 88.0711 3.15201 98c1.15592 8.147 14.04839 17.371 19.80859 22.83 17.4645 16.553 34.3844 33.906 51.2855 51.036 6.1986 6.282 15.4547 20.309 25.7539 16.392 8.067-3.069 15.968-14.203 21.999-20.258 16.624-16.691 33.497-33.177 49.986-49.999 6.162-6.286 19.227-14.834 16.697-25.001-1.901-7.6399-12.813-14.6557-18.106-20.1698-17.195-17.91-35.034-35.2599-52.59-52.8163-6.161-6.1616-15.77-20.522704-25.9713-16.0764z" />
    </symbol>
    <symbol id="logo-smtp2go" viewBox="0 0 96 39">
        <path fill="#ABD3FF"
            d="M54.6 38.2c-.4 0-.8-.1-1.1-.4-.7-.5-.9-1.5-.4-2.3.1-.2 11.3-18.8 5.5-28-1.2-1.9-2.5-3-4-3-2.8-.1-5.9 3-6.9 4.3-.6.8-1.7.9-2.5.3-.8-.6-.9-1.7-.3-2.5.2-.2 4.6-5.9 9.8-5.6 2.7.1 5 1.7 6.8 4.7 4.3 6.9 1.3 17.3-1.7 24.2 3.1-2.2 7-4.3 10.6-4.9 1-.1 1.9.5 2 1.5.1 1-.5 1.9-1.5 2-6.9 1.1-15.1 9.1-15.2 9.2-.2.4-.7.5-1.1.5z" />
        <path fill="currentColor"
            d="M11.5 23.5c0 .9-.2 1.8-.7 2.5s-1.2 1.3-2.1 1.7-2 .6-3.3.6c-1 0-1.9-.1-2.6-.2-.7-.1-1.4-.4-2.2-.7v-3.6c.8.4 1.6.7 2.5.9.8.2 1.6.3 2.3.3.6 0 1.1-.1 1.4-.3.3-.2.4-.5.4-.8 0-.2-.1-.4-.2-.5 0-.2-.2-.4-.5-.5-.3-.2-1-.5-2.1-1-1-.4-1.8-.9-2.3-1.3-.5-.4-.9-.9-1.1-1.4-.2-.5-.4-1.2-.4-1.9 0-1.4.5-2.5 1.6-3.2 1-.8 2.5-1.2 4.3-1.2 1.6 0 3.3.4 4.9 1.1l-1.2 3c-1.5-.6-2.7-1-3.8-1-.5 0-.9.1-1.2.3-.2.2-.4.5-.4.7 0 .3.2.6.5.8.3.2 1.2.7 2.6 1.3 1.3.6 2.3 1.2 2.8 1.9s.8 1.5.8 2.5zm8.8 4.6-3.2-10.9H17c.1 1.9.2 3.3.2 4.3V28h-3.7V13h5.6l3.3 10.7h.1L25.6 13h5.6v15.1h-3.9v-7.7s.1-1.4.1-3.1h-.1l-3.1 10.8h-3.9zm20.3 0h-4.2V16.3h-3.8V13h11.8v3.3h-3.8v11.8zm16.9-10.3c0 1.7-.5 3-1.5 3.9-1 .9-2.5 1.4-4.4 1.4h-1.2v5h-4.2V13h5.4c2 0 3.5.4 4.4 1.2 1 .9 1.5 2.1 1.5 3.6zm-7.1 2h.8c.6 0 1.1-.2 1.5-.5.4-.3.6-.8.6-1.4 0-1-.6-1.5-1.8-1.5h-1.1v3.4zm21.6-.5h6.7v8.1c-1.8.6-3.8.9-6 .9-2.4 0-4.3-.7-5.6-2-1.3-1.3-2-3.3-2-5.8 0-2.4.7-4.3 2.2-5.7 1.4-1.4 3.5-2 6-2 1 0 1.9.1 2.8.3.9.2 1.6.4 2.3.7L77 16.9c-1.1-.5-2.4-.8-3.7-.8-1.2 0-2.2.4-2.9 1.2-.7.8-1 1.9-1 3.3s.3 2.5.9 3.2c.6.7 1.5 1.1 2.6 1.1.6 0 1.2-.1 1.7-.2v-2.4H72v-3zm23.6 1.2c0 2.5-.6 4.5-1.9 5.8s-3.2 2-5.7 2c-2.4 0-4.3-.7-5.6-2-1.3-1.3-2-3.3-2-5.8s.7-4.4 1.9-5.8 3.2-2 5.7-2 4.4.7 5.6 2 2 3.3 2 5.8zm-10.7 0c0 2.9 1.1 4.4 3.2 4.4 1.1 0 1.9-.4 2.4-1.1.5-.7.8-1.8.8-3.3 0-1.5-.3-2.6-.8-3.3-.5-.7-1.3-1.1-2.3-1.1-2.3 0-3.3 1.5-3.3 4.4z" />
    </symbol>
    <symbol id="logo-dyn" viewBox="0 0 32 21">
        <path fill="#C74634"
            d="M9.9 20.1c-5.5 0-9.9-4.4-9.9-9.9S4.4.3 9.9.3h11.6c5.5 0 9.9 4.4 9.9 9.9s-4.4 9.9-9.9 9.9H9.9m11.3-3.5c3.6 0 6.4-2.9 6.4-6.4 0-3.6-2.9-6.4-6.4-6.4h-11c-3.6 0-6.4 2.9-6.4 6.4s2.9 6.4 6.4 6.4h11" />
    </symbol>
    <symbol id="logo-gmail" viewBox="0 49.4 512 399.42">
        <g fill-rule="nonzero">
            <path fill="#4285f4"
                d="M34.91 448.818h81.454V251L0 163.727V413.91c0 19.287 15.622 34.91 34.91 34.91z" />
            <path fill="#34a853"
                d="M395.636 448.818h81.455c19.287 0 34.909-15.622 34.909-34.909V163.727L395.636 251z" />
            <path fill="#fbbc04"
                d="M395.636 99.727V251L512 163.727v-46.545c0-43.142-49.25-67.782-83.782-41.891z" />
        </g>
        <path fill="#ea4335" d="M116.364 251V99.727L256 204.455 395.636 99.727V251L256 355.727z" />
        <path fill="#c5221f" fill-rule="nonzero"
            d="M0 117.182v46.545L116.364 251V99.727L83.782 75.291C49.25 49.4 0 74.04 0 117.18z" />
    </symbol>
    <symbol id="logo-sparkpost" viewBox="-10 -10 140 140">
        <path
            d="M114.6 18.8c-5.1 0-9.7 2.5-12.5 6.3l-18.9 26c-.7 1-1.8 1.6-3.1 1.6-2.1 0-3.8-1.7-3.8-3.8 0-.8.2-1.5.6-2.1l15.9-23.5c1.6-2.4 2.6-5.3 2.6-8.4C95.5 6.7 88.6 0 80.1 0H0v15.1h68.7c0 4.2-3.4 7.5-7.7 7.5H0C0 28 1.1 33.1 3.2 37.7h50.1c0 4.2-3.4 7.5-7.7 7.5h-38c7 9.2 18.1 15.1 30.7 15.1h18.8c2.1 0 3.8 1.7 3.8 3.8 0 2.1-1.7 3.8-3.8 3.8H38.3l-25.6 37.7h46.4c21.2 0 39.2-13.6 45.5-32.3l8.6-25.7c2.8-8.4 7.9-15.7 14.6-21.2-2.7-4.6-7.6-7.6-13.2-7.6m0 "
            class="st0" />
    </symbol>
    <symbol id="logo-socketlabs" viewBox="0 0 28 28">
        <g stroke-width="2.383">
            <path fill="#e07b34"
                d="M28.31723965 5.25103672v17.49505087c0 2.89998877-2.3600526 5.25276762-5.2695532 5.25276762H5.26560216c-2.90950059 0-5.26675559-2.3511003-5.26675559-5.25108906V5.25103672c0-2.90054829 2.35837404-5.25164858 5.26787463-5.25164858h17.78096527c2.9095006 0 5.26955319 2.3511003 5.26955319 5.25164858" />
            <path fill="#fff"
                d="M25.70188637 5.30459071v16.58918906c0 1.92754414-1.55938042 3.48972215-3.48356744 3.48972215h-7.53001135c-.98419453 0-1.78262863-.79955314-1.78262863-1.78542623v-2.69408564c0-.1130229.06602328-.21877207.17121292-.26129554.00447615-.00167855.0089523-.00335711.01286894-.00559519.43418701-.16897484.92656404-.09008261 1.31207287.1706534l.16282013.11078483c.06154712.04196395.11805858.08840406.17233195.13708224.46216298.41460384 1.06196772.66918514 1.63547505.66918514 1.18058582 0 2.13680438-1.07819378 2.13680438-2.40873078 0-1.32997749-.95621856-2.40817126-2.13680438-2.40817126-.5639955 0-1.15260985.24674803-1.61141571.6479234-.07049944.0609876-.14267744.12085618-.2198911.173451l-.20142697.13652272c-.33011641.2226887-.74248217.28591438-1.12407436.17177243l-.0027976-.00111903c-.1824033-.05427338-.30717612-.2226887-.30717612-.41236576v-7.51322577c0-.21317687-.14043936-.40061585-.34466392-.4599249l-.00615471-.00167856c-.40173489-.11358242-.83424334-.0234998-1.18058582.20926024l-.14267743.09735636c-.0777732.0520353-.14939167.1124634-.2198911.17401052-.45880587.4017349-1.0496583.64904244-1.61309428.64904244-1.18114533 0-2.13680437-1.07819378-2.13680437-2.40817126 0-1.330537.95565904-2.40873078 2.13680437-2.40873078.5723883 0 1.17275255.25346226 1.63491553.66750658.05427338.05035674.11134435.09679685.17289148.1387608l.20142696.13652272c.33683065.22828389.75591064.29598573 1.14701466.18631994l.00391663-.00055952c.20478409-.0576305.346902-.24506947.346902-.45824634V3.86494744c0-.6826136.5522456-1.23541872 1.2320616-1.23541872h8.89355999c1.47489299 0 2.67058583 1.19793092 2.67058583 2.67506199" />
        </g>
    </symbol>
</svg>