<svg xmlns="http://www.w3.org/2000/svg" version="1.0">
  <symbol id="icon" viewBox="0 0 512 512">
    <path fill="currentColor" d="M44 1.1A51.13 51.13 0 0 0 10.6 21C5.1 28.4 2.2 35.9.9 45.9c-.6 4.9-.9 81-.7 215.6l.3 208 2.2 6.5c5.5 16.2 17.7 28.2 33.7 33.3l7.1 2.2h425l7.1-2.2a51.11 51.11 0 0 0 33.7-33.8l2.2-7v-425l-2.2-7.1c-5.1-16-17.1-28.2-33.3-33.7L469.5.5l-210-.1C144 .3 47 .6 44 1.1zm210.1 208 83.4 120.1.3-120.1L338 89h52v335h-47.9l-83.3-120.1-83.3-120.1-.3 120.1L175 424l-26.3-.2-26.2-.3-.3-167.3L122 89h48.7l83.4 120.1z" />
  </symbol>
  <symbol id="icon-logout" viewBox="0 0 24 24" fill="currentColor">
    <path fill-rule="evenodd" d="M7.5 3.75A1.5 1.5 0 006 5.25v13.5a1.5 1.5 0 001.5 1.5h6a1.5 1.5 0 001.5-1.5V15a.75.75 0 011.5 0v3.75a3 3 0 01-3 3h-6a3 3 0 01-3-3V5.25a3 3 0 013-3h6a3 3 0 013 3V9A.75.75 0 0115 9V5.25a1.5 1.5 0 00-1.5-1.5h-6zm5.03 4.72a.75.75 0 010 1.06l-1.72 1.72h10.94a.75.75 0 010 1.5H10.81l1.72 1.72a.75.75 0 11-1.06 1.06l-3-3a.75.75 0 010-1.06l3-3a.75.75 0 011.06 0z" clip-rule="evenodd" />
  </symbol>
  <symbol id="icon-close" viewBox="0 0 24 24" fill="currentColor">
    <path fill-rule="evenodd" d="M5.47 5.47a.75.75 0 011.06 0L12 10.94l5.47-5.47a.75.75 0 111.06 1.06L13.06 12l5.47 5.47a.75.75 0 11-1.06 1.06L12 13.06l-5.47 5.47a.75.75 0 01-1.06-1.06L10.94 12 5.47 6.53a.75.75 0 010-1.06z" clip-rule="evenodd" />
  </symbol>
  <symbol id="icon-plus" viewBox="0 0 24 24" stroke-width="1.5" stroke="currentColor">
    <path stroke-linecap="round" stroke-linejoin="round" d="M12 4.5v15m7.5-7.5h-15" />
  </symbol>
</svg>